<svg width="160" height="148" viewBox="0 0 160 148" fill="none" xmlns="http://www.w3.org/2000/svg">
    <rect width="160" height="148" rx="12" fill="#141416"/>
    <g filter="url(#filter0_d_6761_14010)">
        <rect x="56" y="50" width="48" height="48" rx="24" fill="#FCFCFD"/>
        <path fill-rule="evenodd" clip-rule="evenodd"
              d="M81.3941 70.8433C81.6647 70.5936 82.0864 70.6104 82.3362 70.881L84.49 73.2143C84.7258 73.4697 84.7258 73.8633 84.49 74.1187L82.3362 76.452C82.0865 76.7226 81.6647 76.7394 81.3941 76.4897C81.1236 76.24 81.1067 75.8182 81.3564 75.5477L82.4775 74.3331L76.0002 74.3331C75.632 74.3331 75.3335 74.0347 75.3335 73.6665C75.3335 73.2983 75.632 72.9998 76.0002 72.9998L82.4775 72.9998L81.3564 71.7854C81.1067 71.5148 81.1236 71.093 81.3941 70.8433Z"
              fill="#777E91"/>
    </g>
    <defs>
        <filter id="filter0_d_6761_14010" x="48" y="50" width="64" height="64" filterUnits="userSpaceOnUse"
                color-interpolation-filters="sRGB">
            <feFlood flood-opacity="0" result="BackgroundImageFix"/>
            <feColorMatrix in="SourceAlpha" type="matrix" values="0 0 0 0 0 0 0 0 0 0 0 0 0 0 0 0 0 0 127 0"
                           result="hardAlpha"/>
            <feMorphology radius="8" operator="erode" in="SourceAlpha" result="effect1_dropShadow_6761_14010"/>
            <feOffset dy="8"/>
            <feGaussianBlur stdDeviation="8"/>
            <feColorMatrix type="matrix" values="0 0 0 0 0.0583333 0 0 0 0 0.0583333 0 0 0 0 0.0583333 0 0 0 0.2 0"/>
            <feBlend mode="multiply" in2="BackgroundImageFix" result="effect1_dropShadow_6761_14010"/>
            <feBlend mode="normal" in="SourceGraphic" in2="effect1_dropShadow_6761_14010" result="shape"/>
        </filter>
    </defs>
</svg>
