<svg width="256" height="303" viewBox="0 0 256 303" fill="none" xmlns="http://www.w3.org/2000/svg">
    <rect width="256" height="303" rx="16" fill="#353945"/>
    <rect width="256" height="303" fill="#E6E8EC"/>
    <rect width="256" height="303" fill="#23262F"/>
    <rect x="8" y="11" width="103" height="26" rx="4" fill="#45B36B"/>
    <path d="M23.164 23.288C23.164 23.776 23.052 24.224 22.828 24.632C22.604 25.032 22.26 25.356 21.796 25.604C21.332 25.852 20.756 25.976 20.068 25.976H18.796V29H16.744V20.576H20.068C20.74 20.576 21.308 20.692 21.772 20.924C22.236 21.156 22.584 21.476 22.816 21.884C23.048 22.292 23.164 22.76 23.164 23.288ZM19.912 24.344C20.304 24.344 20.596 24.252 20.788 24.068C20.98 23.884 21.076 23.624 21.076 23.288C21.076 22.952 20.98 22.692 20.788 22.508C20.596 22.324 20.304 22.232 19.912 22.232H18.796V24.344H19.912ZM26.2483 20.576V25.616C26.2483 26.12 26.3723 26.508 26.6203 26.78C26.8683 27.052 27.2323 27.188 27.7123 27.188C28.1923 27.188 28.5603 27.052 28.8163 26.78C29.0723 26.508 29.2003 26.12 29.2003 25.616V20.576H31.2523V25.604C31.2523 26.356 31.0923 26.992 30.7723 27.512C30.4523 28.032 30.0203 28.424 29.4763 28.688C28.9403 28.952 28.3403 29.084 27.6763 29.084C27.0123 29.084 26.4163 28.956 25.8883 28.7C25.3683 28.436 24.9563 28.044 24.6523 27.524C24.3483 26.996 24.1963 26.356 24.1963 25.604V20.576H26.2483ZM36.9892 29L35.2372 25.82H34.7452V29H32.6932V20.576H36.1372C36.8012 20.576 37.3652 20.692 37.8292 20.924C38.3012 21.156 38.6532 21.476 38.8852 21.884C39.1172 22.284 39.2332 22.732 39.2332 23.228C39.2332 23.788 39.0732 24.288 38.7532 24.728C38.4412 25.168 37.9772 25.48 37.3612 25.664L39.3052 29H36.9892ZM34.7452 24.368H36.0172C36.3932 24.368 36.6732 24.276 36.8572 24.092C37.0492 23.908 37.1452 23.648 37.1452 23.312C37.1452 22.992 37.0492 22.74 36.8572 22.556C36.6732 22.372 36.3932 22.28 36.0172 22.28H34.7452V24.368ZM40.1733 24.776C40.1733 23.944 40.3533 23.204 40.7133 22.556C41.0733 21.9 41.5733 21.392 42.2133 21.032C42.8613 20.664 43.5933 20.48 44.4093 20.48C45.4093 20.48 46.2653 20.744 46.9773 21.272C47.6893 21.8 48.1653 22.52 48.4053 23.432H46.1493C45.9813 23.08 45.7413 22.812 45.4293 22.628C45.1253 22.444 44.7773 22.352 44.3853 22.352C43.7533 22.352 43.2413 22.572 42.8493 23.012C42.4573 23.452 42.2613 24.04 42.2613 24.776C42.2613 25.512 42.4573 26.1 42.8493 26.54C43.2413 26.98 43.7533 27.2 44.3853 27.2C44.7773 27.2 45.1253 27.108 45.4293 26.924C45.7413 26.74 45.9813 26.472 46.1493 26.12H48.4053C48.1653 27.032 47.6893 27.752 46.9773 28.28C46.2653 28.8 45.4093 29.06 44.4093 29.06C43.5933 29.06 42.8613 28.88 42.2133 28.52C41.5733 28.152 41.0733 27.644 40.7133 26.996C40.3533 26.348 40.1733 25.608 40.1733 24.776ZM56.958 20.576V29H54.906V25.532H51.714V29H49.662V20.576H51.714V23.876H54.906V20.576H56.958ZM63.6833 27.512H60.5393L60.0353 29H57.8873L60.9353 20.576H63.3113L66.3593 29H64.1873L63.6833 27.512ZM63.1553 25.928L62.1113 22.844L61.0793 25.928H63.1553ZM70.335 29.084C69.719 29.084 69.167 28.984 68.679 28.784C68.191 28.584 67.799 28.288 67.503 27.896C67.215 27.504 67.063 27.032 67.047 26.48H69.231C69.263 26.792 69.371 27.032 69.555 27.2C69.739 27.36 69.979 27.44 70.275 27.44C70.579 27.44 70.819 27.372 70.995 27.236C71.171 27.092 71.259 26.896 71.259 26.648C71.259 26.44 71.187 26.268 71.043 26.132C70.907 25.996 70.735 25.884 70.527 25.796C70.327 25.708 70.039 25.608 69.663 25.496C69.119 25.328 68.675 25.16 68.331 24.992C67.987 24.824 67.691 24.576 67.443 24.248C67.195 23.92 67.071 23.492 67.071 22.964C67.071 22.18 67.355 21.568 67.923 21.128C68.491 20.68 69.231 20.456 70.143 20.456C71.071 20.456 71.819 20.68 72.387 21.128C72.955 21.568 73.259 22.184 73.299 22.976H71.079C71.063 22.704 70.963 22.492 70.779 22.34C70.595 22.18 70.359 22.1 70.071 22.1C69.823 22.1 69.623 22.168 69.471 22.304C69.319 22.432 69.243 22.62 69.243 22.868C69.243 23.14 69.371 23.352 69.627 23.504C69.883 23.656 70.283 23.82 70.827 23.996C71.371 24.18 71.811 24.356 72.147 24.524C72.491 24.692 72.787 24.936 73.035 25.256C73.283 25.576 73.407 25.988 73.407 26.492C73.407 26.972 73.283 27.408 73.035 27.8C72.795 28.192 72.443 28.504 71.979 28.736C71.515 28.968 70.967 29.084 70.335 29.084ZM76.7218 20.576V29H74.6698V20.576H76.7218ZM85.7448 29H83.6928L80.2608 23.804V29H78.2088V20.576H80.2608L83.6928 25.796V20.576H85.7448V29ZM92.8243 23.24C92.6723 22.96 92.4523 22.748 92.1643 22.604C91.8843 22.452 91.5523 22.376 91.1683 22.376C90.5043 22.376 89.9723 22.596 89.5723 23.036C89.1723 23.468 88.9723 24.048 88.9723 24.776C88.9723 25.552 89.1803 26.16 89.5963 26.6C90.0203 27.032 90.6003 27.248 91.3363 27.248C91.8403 27.248 92.2643 27.12 92.6083 26.864C92.9603 26.608 93.2163 26.24 93.3763 25.76H90.7723V24.248H95.2363V26.156C95.0843 26.668 94.8243 27.144 94.4563 27.584C94.0963 28.024 93.6363 28.38 93.0763 28.652C92.5163 28.924 91.8843 29.06 91.1803 29.06C90.3483 29.06 89.6043 28.88 88.9483 28.52C88.3003 28.152 87.7923 27.644 87.4243 26.996C87.0643 26.348 86.8843 25.608 86.8843 24.776C86.8843 23.944 87.0643 23.204 87.4243 22.556C87.7923 21.9 88.3003 21.392 88.9483 21.032C89.5963 20.664 90.3363 20.48 91.1683 20.48C92.1763 20.48 93.0243 20.724 93.7123 21.212C94.4083 21.7 94.8683 22.376 95.0923 23.24H92.8243ZM101.616 20.276L101.376 26.024H99.6359L99.3959 20.276H101.616ZM100.536 29.096C100.176 29.096 99.8799 28.992 99.6479 28.784C99.4239 28.568 99.3119 28.304 99.3119 27.992C99.3119 27.672 99.4239 27.404 99.6479 27.188C99.8799 26.972 100.176 26.864 100.536 26.864C100.888 26.864 101.176 26.972 101.4 27.188C101.632 27.404 101.748 27.672 101.748 27.992C101.748 28.304 101.632 28.568 101.4 28.784C101.176 28.992 100.888 29.096 100.536 29.096Z"
          fill="#FCFCFD"/>
    <g filter="url(#filter0_d_6830_24000)">
        <rect x="216" y="8" width="32" height="32" rx="16" fill="#FCFCFD"/>
        <path fill-rule="evenodd" clip-rule="evenodd"
              d="M232.577 19.7642C232.255 20.0736 231.746 20.0736 231.423 19.7642L230.846 19.2105C230.171 18.5624 229.258 18.1667 228.25 18.1667C226.179 18.1667 224.5 19.8456 224.5 21.9167C224.5 23.9022 225.575 25.5417 227.127 26.8888C228.68 28.237 230.536 29.1312 231.646 29.5876C231.878 29.683 232.123 29.683 232.355 29.5876C233.464 29.1312 235.321 28.237 236.874 26.8888C238.425 25.5417 239.5 23.9022 239.5 21.9167C239.5 19.8456 237.821 18.1667 235.75 18.1667C234.742 18.1667 233.83 18.5624 233.154 19.2105L232.577 19.7642ZM232 18.008C231.027 17.074 229.706 16.5 228.25 16.5C225.259 16.5 222.833 18.9251 222.833 21.9167C222.833 27.2235 228.642 30.1542 231.012 31.1289C231.65 31.3914 232.351 31.3914 232.989 31.1289C235.358 30.1542 241.167 27.2235 241.167 21.9167C241.167 18.9251 238.742 16.5 235.75 16.5C234.295 16.5 232.973 17.074 232 18.008Z"
              fill="#777E91"/>
    </g>
    <rect x="61" y="247" width="134" height="40" rx="20" fill="#3772FF"/>
    <path d="M77.952 272V262.2H81.578C82.362 262.2 83.0107 262.331 83.524 262.592C84.0373 262.853 84.42 263.213 84.672 263.67C84.924 264.127 85.05 264.641 85.05 265.21C85.05 265.751 84.9287 266.251 84.686 266.708C84.4433 267.156 84.0653 267.52 83.552 267.8C83.0387 268.071 82.3807 268.206 81.578 268.206H79.744V272H77.952ZM79.744 266.75H81.466C82.0913 266.75 82.5393 266.615 82.81 266.344C83.09 266.064 83.23 265.686 83.23 265.21C83.23 264.725 83.09 264.347 82.81 264.076C82.5393 263.796 82.0913 263.656 81.466 263.656H79.744V266.75ZM86.4139 272V261.92H88.2059V272H86.4139ZM92.431 272.168C91.8336 272.168 91.3436 272.075 90.961 271.888C90.5783 271.692 90.2936 271.435 90.107 271.118C89.9203 270.801 89.827 270.451 89.827 270.068C89.827 269.424 90.079 268.901 90.583 268.5C91.087 268.099 91.843 267.898 92.851 267.898H94.615V267.73C94.615 267.254 94.4796 266.904 94.209 266.68C93.9383 266.456 93.6023 266.344 93.201 266.344C92.837 266.344 92.5196 266.433 92.249 266.61C91.9783 266.778 91.8103 267.03 91.745 267.366H89.995C90.0416 266.862 90.2096 266.423 90.499 266.05C90.7976 265.677 91.1803 265.392 91.647 265.196C92.1136 264.991 92.6363 264.888 93.215 264.888C94.2043 264.888 94.9836 265.135 95.553 265.63C96.1223 266.125 96.407 266.825 96.407 267.73V272H94.881L94.713 270.88C94.5076 271.253 94.2183 271.561 93.845 271.804C93.481 272.047 93.0096 272.168 92.431 272.168ZM92.837 270.768C93.3503 270.768 93.747 270.6 94.027 270.264C94.3163 269.928 94.4983 269.513 94.573 269.018H93.047C92.571 269.018 92.2303 269.107 92.025 269.284C91.8196 269.452 91.717 269.662 91.717 269.914C91.717 270.185 91.8196 270.395 92.025 270.544C92.2303 270.693 92.501 270.768 92.837 270.768ZM101.519 272.168C100.81 272.168 100.184 272.014 99.643 271.706C99.1017 271.398 98.6724 270.969 98.355 270.418C98.047 269.867 97.893 269.237 97.893 268.528C97.893 267.819 98.047 267.189 98.355 266.638C98.6724 266.087 99.1017 265.658 99.643 265.35C100.184 265.042 100.81 264.888 101.519 264.888C102.406 264.888 103.152 265.121 103.759 265.588C104.366 266.045 104.753 266.68 104.921 267.492H103.031C102.938 267.156 102.751 266.895 102.471 266.708C102.2 266.512 101.878 266.414 101.505 266.414C101.01 266.414 100.59 266.601 100.245 266.974C99.8997 267.347 99.727 267.865 99.727 268.528C99.727 269.191 99.8997 269.709 100.245 270.082C100.59 270.455 101.01 270.642 101.505 270.642C101.878 270.642 102.2 270.549 102.471 270.362C102.751 270.175 102.938 269.909 103.031 269.564H104.921C104.753 270.348 104.366 270.978 103.759 271.454C103.152 271.93 102.406 272.168 101.519 272.168ZM109.886 272.168C109.186 272.168 108.565 272.019 108.024 271.72C107.482 271.421 107.058 271.001 106.75 270.46C106.442 269.919 106.288 269.293 106.288 268.584C106.288 267.865 106.437 267.226 106.736 266.666C107.044 266.106 107.464 265.672 107.996 265.364C108.537 265.047 109.172 264.888 109.9 264.888C110.581 264.888 111.183 265.037 111.706 265.336C112.228 265.635 112.634 266.045 112.924 266.568C113.222 267.081 113.372 267.655 113.372 268.29C113.372 268.393 113.367 268.5 113.358 268.612C113.358 268.724 113.353 268.841 113.344 268.962H108.066C108.103 269.503 108.29 269.928 108.626 270.236C108.971 270.544 109.386 270.698 109.872 270.698C110.236 270.698 110.539 270.619 110.782 270.46C111.034 270.292 111.22 270.077 111.342 269.816H113.162C113.031 270.255 112.812 270.656 112.504 271.02C112.205 271.375 111.832 271.655 111.384 271.86C110.945 272.065 110.446 272.168 109.886 272.168ZM109.9 266.344C109.461 266.344 109.074 266.47 108.738 266.722C108.402 266.965 108.187 267.338 108.094 267.842H111.552C111.524 267.385 111.356 267.021 111.048 266.75C110.74 266.479 110.357 266.344 109.9 266.344ZM120.609 272.168C120.011 272.168 119.521 272.075 119.139 271.888C118.756 271.692 118.471 271.435 118.285 271.118C118.098 270.801 118.005 270.451 118.005 270.068C118.005 269.424 118.257 268.901 118.761 268.5C119.265 268.099 120.021 267.898 121.029 267.898H122.793V267.73C122.793 267.254 122.657 266.904 122.387 266.68C122.116 266.456 121.78 266.344 121.379 266.344C121.015 266.344 120.697 266.433 120.427 266.61C120.156 266.778 119.988 267.03 119.923 267.366H118.173C118.219 266.862 118.387 266.423 118.677 266.05C118.975 265.677 119.358 265.392 119.825 265.196C120.291 264.991 120.814 264.888 121.393 264.888C122.382 264.888 123.161 265.135 123.731 265.63C124.3 266.125 124.585 266.825 124.585 267.73V272H123.059L122.891 270.88C122.685 271.253 122.396 271.561 122.023 271.804C121.659 272.047 121.187 272.168 120.609 272.168ZM121.015 270.768C121.528 270.768 121.925 270.6 122.205 270.264C122.494 269.928 122.676 269.513 122.751 269.018H121.225C120.749 269.018 120.408 269.107 120.203 269.284C119.997 269.452 119.895 269.662 119.895 269.914C119.895 270.185 119.997 270.395 120.203 270.544C120.408 270.693 120.679 270.768 121.015 270.768ZM133.747 272.168C133.224 272.168 132.767 272.07 132.375 271.874C131.983 271.678 131.665 271.403 131.423 271.048L131.227 272H129.631V261.92H131.423V266.05C131.647 265.742 131.941 265.471 132.305 265.238C132.678 265.005 133.159 264.888 133.747 264.888C134.4 264.888 134.983 265.047 135.497 265.364C136.01 265.681 136.416 266.115 136.715 266.666C137.013 267.217 137.163 267.842 137.163 268.542C137.163 269.242 137.013 269.867 136.715 270.418C136.416 270.959 136.01 271.389 135.497 271.706C134.983 272.014 134.4 272.168 133.747 272.168ZM133.369 270.6C133.938 270.6 134.409 270.409 134.783 270.026C135.156 269.643 135.343 269.149 135.343 268.542C135.343 267.935 135.156 267.436 134.783 267.044C134.409 266.652 133.938 266.456 133.369 266.456C132.79 266.456 132.314 266.652 131.941 267.044C131.577 267.427 131.395 267.921 131.395 268.528C131.395 269.135 131.577 269.634 131.941 270.026C132.314 270.409 132.79 270.6 133.369 270.6ZM139.73 263.978C139.403 263.978 139.132 263.88 138.918 263.684C138.712 263.488 138.61 263.241 138.61 262.942C138.61 262.643 138.712 262.401 138.918 262.214C139.132 262.018 139.403 261.92 139.73 261.92C140.056 261.92 140.322 262.018 140.528 262.214C140.742 262.401 140.85 262.643 140.85 262.942C140.85 263.241 140.742 263.488 140.528 263.684C140.322 263.88 140.056 263.978 139.73 263.978ZM138.834 272V265.056H140.626V272H138.834ZM145.688 272.168C145.035 272.168 144.451 272.009 143.938 271.692C143.425 271.375 143.019 270.941 142.72 270.39C142.421 269.839 142.272 269.214 142.272 268.514C142.272 267.814 142.421 267.193 142.72 266.652C143.019 266.101 143.425 265.672 143.938 265.364C144.451 265.047 145.035 264.888 145.688 264.888C146.211 264.888 146.668 264.986 147.06 265.182C147.452 265.378 147.769 265.653 148.012 266.008V261.92H149.804V272H148.208L148.012 271.006C147.788 271.314 147.489 271.585 147.116 271.818C146.752 272.051 146.276 272.168 145.688 272.168ZM146.066 270.6C146.645 270.6 147.116 270.409 147.48 270.026C147.853 269.634 148.04 269.135 148.04 268.528C148.04 267.921 147.853 267.427 147.48 267.044C147.116 266.652 146.645 266.456 146.066 266.456C145.497 266.456 145.025 266.647 144.652 267.03C144.279 267.413 144.092 267.907 144.092 268.514C144.092 269.121 144.279 269.62 144.652 270.012C145.025 270.404 145.497 270.6 146.066 270.6Z"
          fill="#FCFCFD"/>
    <path d="M176.333 267.667C176.702 267.667 177 267.368 177 267C177 266.632 176.702 266.333 176.333 266.333C175.965 266.333 175.667 266.632 175.667 267C175.667 267.368 175.965 267.667 176.333 267.667Z"
          fill="#FCFCFD"/>
    <path d="M176.333 270.333C176.702 270.333 177 270.035 177 269.667C177 269.299 176.702 269 176.333 269C175.965 269 175.667 269.299 175.667 269.667C175.667 270.035 175.965 270.333 176.333 270.333Z"
          fill="#FCFCFD"/>
    <path d="M176.333 273C176.702 273 177 272.702 177 272.333C177 271.965 176.702 271.667 176.333 271.667C175.965 271.667 175.667 271.965 175.667 272.333C175.667 272.702 175.965 273 176.333 273Z"
          fill="#FCFCFD"/>
    <path d="M171 270.333C171.368 270.333 171.667 270.035 171.667 269.667C171.667 269.299 171.368 269 171 269C170.632 269 170.333 269.299 170.333 269.667C170.333 270.035 170.632 270.333 171 270.333Z"
          fill="#FCFCFD"/>
    <path d="M171 273C171.368 273 171.667 272.702 171.667 272.333C171.667 271.965 171.368 271.667 171 271.667C170.632 271.667 170.333 271.965 170.333 272.333C170.333 272.702 170.632 273 171 273Z"
          fill="#FCFCFD"/>
    <path d="M165.667 273C166.035 273 166.333 272.702 166.333 272.333C166.333 271.965 166.035 271.667 165.667 271.667C165.298 271.667 165 271.965 165 272.333C165 272.702 165.298 273 165.667 273Z"
          fill="#FCFCFD"/>
    <path fill-rule="evenodd" clip-rule="evenodd"
          d="M176.333 265C175.229 265 174.333 264.105 174.333 263C174.333 261.895 175.229 261 176.333 261C177.438 261 178.333 261.895 178.333 263C178.333 264.105 177.438 265 176.333 265ZM176.333 263.667C175.965 263.667 175.667 263.368 175.667 263C175.667 262.632 175.965 262.333 176.333 262.333C176.701 262.333 177 262.632 177 263C177 263.368 176.701 263.667 176.333 263.667Z"
          fill="#FCFCFD"/>
    <path fill-rule="evenodd" clip-rule="evenodd"
          d="M171 267.667C169.895 267.667 169 266.771 169 265.667C169 264.562 169.895 263.667 171 263.667C172.104 263.667 173 264.562 173 265.667C173 266.771 172.104 267.667 171 267.667ZM171 266.333C170.632 266.333 170.333 266.035 170.333 265.667C170.333 265.298 170.632 265 171 265C171.368 265 171.667 265.298 171.667 265.667C171.667 266.035 171.368 266.333 171 266.333Z"
          fill="#FCFCFD"/>
    <path fill-rule="evenodd" clip-rule="evenodd"
          d="M163.667 268.333C163.667 269.438 164.562 270.333 165.667 270.333C166.771 270.333 167.667 269.438 167.667 268.333C167.667 267.229 166.771 266.333 165.667 266.333C164.562 266.333 163.667 267.229 163.667 268.333ZM165 268.333C165 268.702 165.298 269 165.667 269C166.035 269 166.333 268.702 166.333 268.333C166.333 267.965 166.035 267.667 165.667 267.667C165.298 267.667 165 267.965 165 268.333Z"
          fill="#FCFCFD"/>
    <defs>
        <filter id="filter0_d_6830_24000" x="208" y="8" width="48" height="48" filterUnits="userSpaceOnUse"
                color-interpolation-filters="sRGB">
            <feFlood flood-opacity="0" result="BackgroundImageFix"/>
            <feColorMatrix in="SourceAlpha" type="matrix" values="0 0 0 0 0 0 0 0 0 0 0 0 0 0 0 0 0 0 127 0"
                           result="hardAlpha"/>
            <feMorphology radius="8" operator="erode" in="SourceAlpha" result="effect1_dropShadow_6830_24000"/>
            <feOffset dy="8"/>
            <feGaussianBlur stdDeviation="8"/>
            <feColorMatrix type="matrix" values="0 0 0 0 0.0583333 0 0 0 0 0.0583333 0 0 0 0 0.0583333 0 0 0 0.2 0"/>
            <feBlend mode="multiply" in2="BackgroundImageFix" result="effect1_dropShadow_6830_24000"/>
            <feBlend mode="normal" in="SourceGraphic" in2="effect1_dropShadow_6830_24000" result="shape"/>
        </filter>
    </defs>
</svg>
