<svg width="18" height="18" viewBox="0 0 18 18" fill="none" xmlns="http://www.w3.org/2000/svg">
    <path fill-rule="evenodd" clip-rule="evenodd"
          d="M11.4217 12.6002C10.2928 13.4778 8.87425 14.0003 7.33366 14.0003C3.65176 14.0003 0.666992 11.0156 0.666992 7.33366C0.666992 3.65176 3.65176 0.666992 7.33366 0.666992C11.0156 0.666992 14.0003 3.65176 14.0003 7.33366C14.0003 8.87425 13.4778 10.2928 12.6002 11.4217L17.0896 15.9111C17.415 16.2365 17.415 16.7641 17.0896 17.0896C16.7641 17.415 16.2365 17.415 15.9111 17.0896L11.4217 12.6002ZM12.3337 7.33366C12.3337 10.0951 10.0951 12.3337 7.33366 12.3337C4.57224 12.3337 2.33366 10.0951 2.33366 7.33366C2.33366 4.57224 4.57224 2.33366 7.33366 2.33366C10.0951 2.33366 12.3337 4.57224 12.3337 7.33366Z"
          fill="#777E91"/>
</svg>
